<?xml version="1.0" encoding="utf-8"?>
<!-- Generator: Adobe Illustrator 23.1.1, SVG Export Plug-In . SVG Version: 6.00 Build 0)  -->
<svg version="1.1" id="Layer_1" xmlns="http://www.w3.org/2000/svg" xmlns:xlink="http://www.w3.org/1999/xlink" x="0px" y="0px"
	 viewBox="0 0 1190.55 680.31" style="enable-background:new 0 0 1190.55 680.31;" xml:space="preserve">
<style type="text/css">
	.st0{fill:#002F87;}
</style>
<g>
	<g>
		<path class="st0" d="M403.76,294.23c8.17,1.44,14.91,6.02,20.07,13.77c5.59-7.74,8.6-19.07,8.6-33.69
			c0-29.1-12.33-45.45-31.4-45.45c-19.07,0-31.4,16.34-31.4,45.45s12.33,45.44,31.4,45.44c6.16,0,11.76-1.72,16.34-5.15
			c-4.45-7.6-7.74-10.18-13.62-11.04V294.23z M445.62,334.66c-9.03,0-18.78-3.3-24.23-13.04c-5.74,3.87-12.62,5.87-20.36,5.87
			c-25.95,0-40.86-22.65-40.86-53.19c0-30.54,14.91-53.19,40.86-53.19c25.95,0,40.86,22.65,40.86,53.19
			c0,17.49-4.87,32.4-14.05,41.86c4.45,7.74,8.75,9.89,17.78,9.89V334.66z"/>
		<path class="st0" d="M505.4,251.5v74.55h-8.6V314.3c-8.03,8.31-14.62,13.18-25.52,13.18c-15.49,0-22.08-8.89-22.08-25.09v-50.9
			h8.6v50.04c0,12.33,3.73,19.07,15.2,19.07c9.18,0,14.34-5.59,23.8-14.2V251.5H505.4z"/>
		<path class="st0" d="M564.18,282.18c-1.72-15.34-8.46-25.09-21.5-25.23c-15.2-0.14-21.65,15.34-21.79,25.23H564.18z
			 M520.88,289.07c0,16.92,7.03,31.54,23.94,31.54c9.6,0,14.33-3.3,21.79-15.06l7.03,3.73c-8.03,13.19-15.34,18.2-29.53,18.2
			c-19.5,0-31.83-12.47-31.83-38.71c0-23.09,11.76-38.71,30.68-38.71c20.22,0,29.82,15.91,29.82,39H520.88z"/>
		<path class="st0" d="M631.56,282.18c-1.72-15.34-8.46-25.09-21.5-25.23c-15.2-0.14-21.65,15.34-21.79,25.23H631.56z
			 M588.27,289.07c0,16.92,7.03,31.54,23.94,31.54c9.61,0,14.34-3.3,21.79-15.06l7.03,3.73c-8.03,13.19-15.34,18.2-29.53,18.2
			c-19.49,0-31.83-12.47-31.83-38.71c0-23.09,11.76-38.71,30.68-38.71c20.22,0,29.82,15.91,29.82,39H588.27z"/>
		<path class="st0" d="M647.91,326.05V251.5h8.6v11.76c8.03-8.31,14.62-13.19,25.52-13.19c15.48,0,22.08,8.89,22.08,25.09v50.9
			h-8.61v-50.03c0-12.33-3.72-19.07-15.2-19.07c-9.18,0-14.34,5.59-23.8,14.19v54.91H647.91z"/>
	</g>
	<polygon class="st0" points="748.55,326.05 748.55,222.54 765.18,222.54 793.71,310.29 794,310.29 822.67,222.54 839.3,222.54 
		839.3,326.05 829.84,326.05 829.84,230.29 829.55,230.29 798.44,326.05 789.41,326.05 758.3,230.29 758.01,230.29 758.01,326.05 	
		"/>
	<g>
		<path class="st0" d="M893.21,283.9c-34.12,7.46-38.71,14.48-38.71,23.94c0,8.18,5.59,12.77,13.33,12.77
			c8.03,0,17.92-4.74,25.38-12.33V283.9z M894.64,326.05l-1.14-9.03c-8.89,7.03-15.63,10.46-27.1,10.46
			c-11.61,0-20.5-7.16-20.5-19.49c0-20.36,16.63-24.09,47.74-30.97v-5.16c0-9.89-4.3-14.91-17.06-14.91
			c-8.89,0-16.2,4.88-21.65,13.48l-5.74-3.44c6.45-12.04,15.63-16.92,27.67-16.92c16.92,0,24.95,6.88,24.95,23.37v39
			c0,3.73,0.29,8.6,1.15,13.62H894.64z"/>
		<path class="st0" d="M910.69,326.05V251.5h8.6v14.19h0.29c4.01-9.18,12.04-15.62,21.5-15.62h3.87v8.32h-3.87
			c-9.46,0-21.79,11.18-21.79,25.52v42.15H910.69z"/>
		<path class="st0" d="M979.66,312.15h0.28l20.79-60.64h9.17l-27.81,79.85c-5.02,14.63-10.32,21.08-23.8,21.08
			c-3.73,0-6.02-0.28-8.03-0.86v-7.03c2.58,0.29,5.3,1,8.6,1c6.02,0,12.62-5.3,16.77-20.65l-25.95-73.4h9.46L979.66,312.15z"/>
		<path class="st0" d="M372.17,357.38v30.91c0,4.22,1.84,6.43,5.94,6.43c4.1,0,6-2.21,6-6.43v-30.91h8.45v30.98
			c0,9.73-5.75,13.83-14.45,13.83c-8.69,0-14.38-4.1-14.38-13.83v-30.98H372.17z"/>
		<path class="st0" d="M397.45,401.57v-33.3h7.47v3.8c2.81-2.45,5.45-4.4,8.63-4.4c4.71,0,7.16,2.39,7.16,8.56v25.34H413v-24.49
			c0-2.2-0.73-3.67-2.81-3.67c-1.59,0-3.37,1.53-5.02,3v25.16H397.45z"/>
	</g>
	<path class="st0" d="M433.07,401.57h-7.71v-33.3h7.71V401.57z M425.36,355.54h7.71v6.98h-7.71V355.54z"/>
	<polygon class="st0" points="449.41,389.7 449.54,389.7 454.61,368.28 462.33,368.28 453.27,401.58 445.68,401.58 436.62,368.28 
		444.33,368.28 	"/>
	<g>
		<path class="st0" d="M479.83,380.52v-1.84c0-2.94-1.41-4.77-4.53-4.77c-3.12,0-4.53,1.84-4.53,4.77v1.84H479.83z M470.77,386.76
			v4.41c0,3.3,1.96,4.77,4.53,4.77c3.24,0,4.53-2.08,4.53-4.65h7.71c-0.37,6.86-4.47,10.89-12.24,10.89
			c-7.34,0-12.24-4.53-12.24-11.81v-10.89c0-7.28,4.9-11.81,12.24-11.81c7.16,0,12.24,4.53,12.24,11.32v7.77H470.77z"/>
		<path class="st0" d="M491.83,401.57v-33.3h7.53v4.41h0.12c1.77-3.3,4.1-5.02,7.96-5.02v8.32c-1.29-0.37-2.75-0.86-4.1-0.86
			c-2.51,0-3.8,1.9-3.8,3.67v22.77H491.83z"/>
		<path class="st0" d="M526.29,378.44c-1.04-3.06-3-4.53-5.32-4.53c-1.78,0-3.12,1.29-3.12,3c0,5.14,15.06,5.26,15.06,15.18
			c0,6.61-4.65,10.1-11.08,10.1c-4.65,0-8.81-1.16-12.55-9.49l6.92-1.89c0.67,3.12,2.57,5.14,5.63,5.14c2.33,0,3.73-1.1,3.73-2.94
			c0-6.36-15.06-4.83-15.06-16.04c0-6.3,5.08-9.3,10.53-9.3c5.75,0,9.73,3.3,11.63,8.32L526.29,378.44z"/>
	</g>
	<path class="st0" d="M543.79,401.57h-7.71v-33.3h7.71V401.57z M536.08,355.54h7.71v6.98h-7.71V355.54z"/>
	<g>
		<path class="st0" d="M547.58,375.99v-6.24h3.06v-9.06h7.71v9.06h4.96v6.24h-4.96V393c0,1.65,1.41,2.45,3.49,2.45
			c0.55,0,1.04,0,1.53-0.07v6.49c-1.47,0.25-2.94,0.31-4.41,0.31c-5.02,0-8.33-1.84-8.33-6.6v-19.59H547.58z"/>
		<path class="st0" d="M567.41,406.47c0.74,0.12,1.47,0.12,2.27,0.12c3.37,0,5.57-2.93,5.57-4.41c0-1.96-0.61-4.22-1.4-7.04
			l-7.72-26.87h7.84l5.2,22.03h0.12l4.83-22.03h7.84l-8.87,33.17c-2.39,9-5.51,11.88-13.22,11.88c-0.73,0-1.59-0.06-2.45-0.12
			V406.47z"/>
		<path class="st0" d="M614.91,391.54c0,2.57,1.84,3.92,4.53,3.92c2.69,0,4.53-1.35,4.53-3.92v-13.22c0-2.57-1.84-3.92-4.53-3.92
			c-2.69,0-4.53,1.35-4.53,3.92V391.54z M607.2,380.28c0-8.81,4.53-12.61,12.24-12.61c7.72,0,12.24,3.8,12.24,12.61v9.3
			c0,8.82-4.53,12.61-12.24,12.61c-7.71,0-12.24-3.79-12.24-12.61V380.28z"/>
		<path class="st0" d="M650.04,363.5h-2.2c-1.83,0-2.63,1.17-2.63,2.81v3.43h4.59v6.24h-4.59v25.58h-7.71v-25.58h-3.49v-6.24h3.49
			v-3.18c0-7.71,3.24-9.79,8.87-9.79c1.1,0,2.39,0.18,3.67,0.37V363.5z"/>
	</g>
	<polygon class="st0" points="668.28,401.57 668.28,357.38 676.73,357.38 676.73,394.11 690.31,394.11 690.31,401.57 	"/>
	<g>
		<path class="st0" d="M700.9,391.54c0,2.57,1.84,3.92,4.53,3.92c2.69,0,4.53-1.35,4.53-3.92v-13.22c0-2.57-1.84-3.92-4.53-3.92
			c-2.69,0-4.53,1.35-4.53,3.92V391.54z M693.19,380.28c0-8.81,4.53-12.61,12.24-12.61c7.71,0,12.24,3.8,12.24,12.61v9.3
			c0,8.82-4.53,12.61-12.24,12.61c-7.71,0-12.24-3.79-12.24-12.61V380.28z"/>
		<path class="st0" d="M722.57,401.57v-33.3h7.47v3.8c2.81-2.45,5.45-4.4,8.63-4.4c4.71,0,7.16,2.39,7.16,8.56v25.34h-7.72v-24.49
			c0-2.2-0.73-3.67-2.81-3.67c-1.59,0-3.36,1.53-5.02,3v25.16H722.57z"/>
		<path class="st0" d="M766.27,375.81c-1.53-1.65-2.94-2.39-4.65-2.39c-2.08,0-3.79,1.35-3.79,7.96v7.1c0,6.6,1.71,7.96,3.79,7.96
			c1.71,0,3.12-0.74,4.65-2.39V375.81z M766.88,401.57v-4.04h-0.12c-1.35,2.08-4.77,4.65-8.2,4.65c-6,0-8.45-4.65-8.45-13.22v-8.08
			c0-8.56,2.45-13.22,8.45-13.22c2.08,0,4.04,0.98,7.71,3.67v-13.96h7.71v44.19H766.88z"/>
		<path class="st0" d="M785.37,391.54c0,2.57,1.84,3.92,4.53,3.92c2.69,0,4.52-1.35,4.52-3.92v-13.22c0-2.57-1.83-3.92-4.52-3.92
			c-2.69,0-4.53,1.35-4.53,3.92V391.54z M777.65,380.28c0-8.81,4.53-12.61,12.25-12.61c7.71,0,12.24,3.8,12.24,12.61v9.3
			c0,8.82-4.53,12.61-12.24,12.61c-7.72,0-12.25-3.79-12.25-12.61V380.28z"/>
		<path class="st0" d="M807.03,401.57v-33.3h7.47v3.8c2.82-2.45,5.45-4.4,8.63-4.4c4.71,0,7.16,2.39,7.16,8.56v25.34h-7.71v-24.49
			c0-2.2-0.73-3.67-2.82-3.67c-1.59,0-3.36,1.53-5.02,3v25.16H807.03z"/>
		<path class="st0" d="M201.05,322.12c-21.6,0-39.1-21.58-39.1-48.21c0-26.63,17.51-48.21,39.1-48.21
			c21.6,0,39.11,21.58,39.11,48.21C240.16,300.54,222.65,322.12,201.05,322.12 M200.61,222.03c-29.12,0-52.73,23.33-52.73,52.11
			c0,28.78,23.61,52.12,52.73,52.12c29.13,0,52.74-23.34,52.74-52.12C253.35,245.36,229.74,222.03,200.61,222.03"/>
		<path class="st0" d="M90.71,225.78c0,0,38.16,26.97,20.79,59.62c0,0,25.68-35.1,34.29,14.28c0,0-7.38-11.19-21.62-8.4
			c-12.45,2.45-13.99,12.08-13.99,12.08L90.71,225.78z"/>
		<path class="st0" d="M309.1,225.78c0,0-38.16,26.97-20.79,59.62c0,0-25.68-35.1-34.29,14.28c0,0,7.38-11.19,21.62-8.4
			c12.45,2.45,13.99,12.08,13.99,12.08L309.1,225.78z"/>
		<path class="st0" d="M151.44,329.04c5.59-1.97,10.86-3.69,17.71-6.3c-2.67-1.53-6.2-4.48-8.74-6.65
			c-6.74,2.42-12.97,4.83-16.87,6.16c-3.95,1.35-16.85,4.34-21.54-8.33c-3.43-9.29,3.17-15.2,9.54-15.2c2.38,0,4.81,0.91,4.8,1.22
			c-3.28,0-5.92,2.64-5.92,5.91c0,3.26,2.64,5.9,5.9,5.9s5.9-2.64,5.9-5.9c0-2.56-1.3-4.52-3.25-6c-2.62-1.82-6.28-2.9-9.75-2.9
			c-7.76,0-14.53,6.83-15.63,14.74C112.35,320.67,122.19,339.37,151.44,329.04"/>
		<path class="st0" d="M120.97,344.05c-1.17-4.11,3.31-7.47,9.96-7.47h140.6c6.65,0,11.14,3.36,9.96,7.47
			c-1.18,4.11-7.56,7.06-14.19,6.57l-54.16-4.01c-6.63-0.5-17.49-0.5-24.12,0l-53.85,4.01
			C128.53,351.11,122.14,348.15,120.97,344.05"/>
		<path class="st0" d="M209.15,216.93c-5.64-8.19-2.3-13.31,1.53-13.29c6.08,0.04,8.3,3.46,8.26,8.95
			c3.26-1.89,6.28-6.86,6.31-11.53c0.03-4.66-3.61-9.01-8.27-9.03c-5.69-0.04-8.62,1.75-11.24,4.74c0.44-0.93,0.9-1.84,1.36-2.72
			c0.99-1.92,2.14-4.26,2.12-6.34c-0.02-2.49-1.2-5.23-2.88-8.22c-1.6-2.9-3.87-7.22-5.4-10.87c-1.47,3.67-3.69,8.01-5.26,10.93
			c-1.65,3.01-2.79,5.76-2.78,8.26c0.02,2.07,1.19,4.4,2.2,6.31c0.49,0.89,0.96,1.81,1.42,2.76c-2.64-3.07-5.56-4.89-11.33-4.86
			c-4.66,0.03-8.29,4.38-8.26,9.03c0.03,4.66,3.05,9.63,6.31,11.53c-0.03-5.49,2.19-8.92,8.26-8.95c3.83-0.03,7.13,4.62,1.17,13.29
			C199.21,215.34,202.87,215.58,209.15,216.93"/>
		<path class="st0" d="M286.4,312.47c-1.1-7.91-7.86-14.74-15.63-14.74c-3.47,0-7.13,1.07-9.75,2.89c-1.94,1.49-3.25,3.44-3.25,6
			c0,3.26,2.64,5.9,5.9,5.9c3.26,0,5.9-2.64,5.9-5.9c0-3.26-2.64-5.9-5.92-5.9c-0.01-0.32,2.42-1.23,4.81-1.23
			c6.37,0,12.97,5.92,9.54,15.2c-4.69,12.67-17.59,9.68-21.54,8.33c-3.9-1.33-21.49-8.04-28.23-10.46c-0.11,0.1-0.25,0.21-0.37,0.31
			c-16.09-5.85-18.71-6.78-26.38-8.37c-24.73-5.13-26.44,11.28-26.44,11.28c0,0.57,2.1-7.26,18.47-5.58
			c6.72,0.68,10.7,2.52,26.16,8.9c-0.06,0.03-0.12,0.08-0.18,0.11c6.86,2.61,23.48,8.63,29.07,10.6
			C277.81,340.13,287.64,321.43,286.4,312.47"/>
	</g>
	<g>
		<path class="st0" d="M391.36,461.05c-1.25-4.86-5.2-8.74-11.65-8.74c-5.83,0-9.29,2.77-9.36,7.77
			c-0.14,10.96,28.16,8.19,28.16,24.28c0,7.28-4.09,14.71-16.85,14.71c-10.96,0-15.26-7.07-17.89-13.04l5.06-1.8
			c2.01,5.27,5.76,10.13,13.11,10.13c7.35,0,11.03-3.88,11.03-9.02c0-12.76-28.16-9.02-28.16-24.83c0-7.21,6.03-12.9,15.05-12.9
			c7.77,0,13.87,4.09,16.51,12.35L391.36,461.05z"/>
		<path class="st0" d="M428.26,473.05c-1.39-4.37-4.23-7.14-8.53-7.14c-6.17,0-9.78,5.27-9.78,14.43s3.61,14.43,9.78,14.43
			c4.58,0,7.14-1.53,9.92-6.66l4.02,1.8c-3.61,6.1-6.8,9.16-13.94,9.16c-9.02,0-14.77-7.07-14.77-18.73s5.76-18.73,14.77-18.73
			c7.42,0,10.89,4.16,13.18,9.78L428.26,473.05z"/>
		<path class="st0" d="M448.52,447.6v5.96h-4.99v-5.96H448.52z M443.52,462.3h4.99v36.07h-4.99V462.3z"/>
		<path class="st0" d="M487.5,490.67c-2.36,4.09-5.69,8.39-13.87,8.39c-8.04,0-15.68-5.55-15.68-18.73
			c0-11.65,5.83-18.73,14.7-18.73c7.49,0,13.73,4.86,13.73,16.37v3.33h-23.44c0,7.91,4.72,13.45,10.68,13.45
			c4.44,0,7.91-2.36,9.99-6.1L487.5,490.67z M481.39,477.01c0-6.66-3.19-11.1-8.6-11.1c-6.03,0-9.29,4.44-9.71,11.1H481.39z"/>
		<path class="st0" d="M500.54,462.3v4.85h0.14c2.84-3.19,6.59-5.55,10.68-5.55c5.34,0,10.4,2.78,10.4,10.54v26.22h-4.99v-26.08
			c0-4.79-2.29-6.38-5.9-6.38c-3.75,0-8.05,3.05-10.33,5.48v26.98h-4.99V462.3H500.54z"/>
		<path class="st0" d="M553.53,473.05c-1.39-4.37-4.23-7.14-8.53-7.14c-6.17,0-9.78,5.27-9.78,14.43s3.61,14.43,9.78,14.43
			c4.58,0,7.14-1.53,9.92-6.66l4.02,1.8c-3.61,6.1-6.8,9.16-13.94,9.16c-9.02,0-14.77-7.07-14.77-18.73s5.76-18.73,14.77-18.73
			c7.42,0,10.89,4.16,13.18,9.78L553.53,473.05z"/>
		<path class="st0" d="M593.97,490.67c-2.36,4.09-5.69,8.39-13.87,8.39c-8.04,0-15.68-5.55-15.68-18.73
			c0-11.65,5.83-18.73,14.7-18.73c7.49,0,13.73,4.86,13.73,16.37v3.33h-23.44c0,7.91,4.72,13.45,10.68,13.45
			c4.44,0,7.91-2.36,9.99-6.1L593.97,490.67z M587.87,477.01c0-6.66-3.19-11.1-8.6-11.1c-6.03,0-9.29,4.44-9.71,11.1H587.87z"/>
		<path class="st0" d="M620.47,469.24c2.29-4.16,6.73-7.63,13.53-7.63c6.1,0,12.49,2.91,12.49,10.82v18.17
			c0,3.95,0.35,5.9,0.83,7.77h-5.13l-0.56-4.99c-2.5,2.78-6.52,5.69-11.93,5.69c-5.55,0-10.27-3.33-10.27-9.92
			c0-7.91,6.04-11.86,22.06-14.7v-1.94c0-4.78-3.12-6.59-7.42-6.59c-5.55,0-8.25,3.19-9.22,5.62L620.47,469.24z M641.49,478.88
			c-11.44,2.01-17.06,5.34-17.06,10.33c0,3.33,3.19,5.55,5.96,5.55c3.61,0,8.18-2.64,11.1-5.97V478.88z"/>
		<path class="st0" d="M661.88,462.3v4.85h0.14c2.84-3.19,6.59-5.55,10.68-5.55c5.34,0,10.4,2.78,10.4,10.54v26.22h-4.99v-26.08
			c0-4.79-2.29-6.38-5.9-6.38c-3.75,0-8.05,3.05-10.33,5.48v26.98h-4.99V462.3H661.88z"/>
		<path class="st0" d="M721.25,448.29v42.17c0,2.64-0.14,5.27,0.28,7.91h-4.58l-0.69-3.54c-1.66,2.29-5.2,4.23-9.5,4.23
			c-6.38,0-14.77-4.3-14.77-18.73c0-14.01,8.39-18.73,14.5-18.73c3.4,0,6.73,1.73,9.5,4.02l0.28,0.14v-17.48H721.25z M716.26,470.9
			c-2.7-2.98-6.1-4.99-9.09-4.99c-5.83,0-10.2,3.81-10.2,14.7c0,9.16,3.95,14.15,10.2,14.15c3.19,0,5.55-1.39,9.09-4.85V470.9z"/>
		<path class="st0" d="M785.07,448.29v4.72h-24.48v16.79h17.41v4.72h-17.41v19.14h25.87v4.72h-31.42v-50.08H785.07z"/>
		<path class="st0" d="M800.61,462.3v4.85h0.14c2.84-3.19,6.59-5.55,10.68-5.55c5.34,0,10.4,2.78,10.4,10.54v26.22h-4.99v-26.08
			c0-4.79-2.29-6.38-5.9-6.38c-3.75,0-8.05,3.05-10.33,5.48v26.98h-4.99V462.3H800.61z"/>
		<path class="st0" d="M860.81,465.91c-2.08,0-4.3,0.35-5.55,0.97c1.04,1.25,2.5,4.02,2.5,7.35c0,7.14-5.9,12.62-13.18,12.62
			c-2.91,0-4.44-0.42-6.38-0.97c-1.94,0.55-2.84,1.73-2.84,3.33c0,1.66,1.18,2.64,2.98,2.64c17.06,0,22.54,3.05,22.54,10.13
			c0,5.27-5.2,9.71-16.44,9.71c-10.13,0-15.54-2.78-15.54-8.74c0-3.61,2.22-5.34,6.1-7.35c-2.77-0.83-4.51-2.98-4.51-5.13
			c0-3.12,2.08-4.44,4.85-6.17c-3.4-2.57-4.92-6.1-4.92-10.06c0-7.63,5.97-12.62,13.66-12.62c3.88,0,6.59,0.83,8.95,2.5
			c2.15-1.53,5.06-2.91,7.77-3.19V465.91z M843.68,496.84c-7.84,0-10.06,3.47-10.06,6.04c0,2.71,1.66,4.51,11.65,4.51
			c5.97,0,10.82-1.67,10.89-5.2C856.1,498.65,852.49,496.84,843.68,496.84z M843.89,465.91c-5.69,0-8.74,3.61-8.74,8.32
			c0,4.78,3.75,8.32,9.29,8.32c5.69,0,8.6-3.74,8.6-8.04C853.04,469.24,849.99,465.91,843.89,465.91z"/>
		<path class="st0" d="M873.86,447.6v5.96h-4.99v-5.96H873.86z M868.86,462.3h4.99v36.07h-4.99V462.3z"/>
		<path class="st0" d="M891.68,462.3v4.85h0.14c2.84-3.19,6.59-5.55,10.68-5.55c5.34,0,10.4,2.78,10.4,10.54v26.22h-4.99v-26.08
			c0-4.79-2.29-6.38-5.9-6.38c-3.75,0-8.05,3.05-10.33,5.48v26.98h-4.99V462.3H891.68z"/>
		<path class="st0" d="M950.92,490.67c-2.36,4.09-5.69,8.39-13.87,8.39c-8.04,0-15.68-5.55-15.68-18.73
			c0-11.65,5.83-18.73,14.7-18.73c7.49,0,13.73,4.86,13.73,16.37v3.33h-23.44c0,7.91,4.72,13.45,10.68,13.45
			c4.44,0,7.91-2.36,9.99-6.1L950.92,490.67z M944.81,477.01c0-6.66-3.19-11.1-8.6-11.1c-6.03,0-9.29,4.44-9.71,11.1H944.81z"/>
		<path class="st0" d="M985.11,490.67c-2.36,4.09-5.69,8.39-13.87,8.39c-8.04,0-15.68-5.55-15.68-18.73
			c0-11.65,5.83-18.73,14.7-18.73c7.49,0,13.73,4.86,13.73,16.37v3.33h-23.44c0,7.91,4.72,13.45,10.68,13.45
			c4.44,0,7.91-2.36,9.99-6.1L985.11,490.67z M979.01,477.01c0-6.66-3.19-11.1-8.6-11.1c-6.03,0-9.29,4.44-9.71,11.1H979.01z"/>
		<path class="st0" d="M991.84,462.3h4.99v7.14h0.14c2.77-4.93,5.76-7.7,11.72-7.7v4.99c-6.24,0.14-9.5,4.23-11.86,11.65v19.97
			h-4.99V462.3z"/>
		<path class="st0" d="M1021.74,447.6v5.96h-4.99v-5.96H1021.74z M1016.75,462.3h4.99v36.07h-4.99V462.3z"/>
		<path class="st0" d="M1039.57,462.3v4.85h0.14c2.84-3.19,6.59-5.55,10.68-5.55c5.34,0,10.4,2.78,10.4,10.54v26.22h-4.99v-26.08
			c0-4.79-2.29-6.38-5.9-6.38c-3.75,0-8.05,3.05-10.33,5.48v26.98h-4.99V462.3H1039.57z"/>
		<path class="st0" d="M1099.77,465.91c-2.08,0-4.3,0.35-5.55,0.97c1.04,1.25,2.5,4.02,2.5,7.35c0,7.14-5.9,12.62-13.18,12.62
			c-2.91,0-4.44-0.42-6.38-0.97c-1.94,0.55-2.84,1.73-2.84,3.33c0,1.66,1.18,2.64,2.98,2.64c17.06,0,22.54,3.05,22.54,10.13
			c0,5.27-5.2,9.71-16.44,9.71c-10.13,0-15.54-2.78-15.54-8.74c0-3.61,2.22-5.34,6.1-7.35c-2.77-0.83-4.51-2.98-4.51-5.13
			c0-3.12,2.08-4.44,4.85-6.17c-3.4-2.57-4.92-6.1-4.92-10.06c0-7.63,5.97-12.62,13.66-12.62c3.88,0,6.59,0.83,8.95,2.5
			c2.15-1.53,5.06-2.91,7.77-3.19V465.91z M1082.64,496.84c-7.84,0-10.06,3.47-10.06,6.04c0,2.71,1.66,4.51,11.65,4.51
			c5.97,0,10.82-1.67,10.89-5.2C1095.06,498.65,1091.45,496.84,1082.64,496.84z M1082.85,465.91c-5.69,0-8.74,3.61-8.74,8.32
			c0,4.78,3.75,8.32,9.29,8.32c5.69,0,8.6-3.74,8.6-8.04C1092,469.24,1088.95,465.91,1082.85,465.91z"/>
	</g>
	<g>
		<path class="st0" d="M363.46,377.74"/>
	</g>
	<path class="st0" d="M363.46,377.74"/>
</g>
</svg>
